HIERARCHY
ROOT ui
{
	 OFFSET 0 0 0
	 CHANNELS 3 XPosition YPosition Z Position
	 EndSite
	 {
	 OFFSET 0 -1 0
	 }
}
ROOT li
{
	 OFFSET 0 0 0
	 CHANNELS 3 XPosition YPosition Z Position
	 EndSite
	 {
	 OFFSET 0 -1 0
	 }
}
ROOT ul
{
	 OFFSET 0 0 0
	 CHANNELS 3 XPosition YPosition Z Position
	 EndSite
	 {
	 OFFSET 0 -1 0
	 }
}
ROOT ll
{
	 OFFSET 0 0 0
	 CHANNELS 3 XPosition YPosition Z Position
	 EndSite
	 {
	 OFFSET 0 -1 0
	 }
}
ROOT tt
{
	 OFFSET 0 0 0
	 CHANNELS 3 XPosition YPosition Z Position
	 EndSite
	 {
	 OFFSET 0 -1 0
	 }
}
ROOT tb
{
	 OFFSET 0 0 0
	 CHANNELS 3 XPosition YPosition Z Position
	 EndSite
	 {
	 OFFSET 0 -1 0
	 }
}
ROOT td
{
	 OFFSET 0 0 0
	 CHANNELS 3 XPosition YPosition Z Position
	 EndSite
	 {
	 OFFSET 0 -1 0
	 }
}
ROOT v
{
	 OFFSET 0 0 0
	 CHANNELS 3 XPosition YPosition Z Position
	 EndSite
	 {
	 OFFSET 0 -1 0
	 }
}
ROOT bn
{
	 OFFSET 0 0 0
	 CHANNELS 3 XPosition YPosition Z Position
	 EndSite
	 {
	 OFFSET 0 -1 0
	 }
}
MOTION
Frames: 24
Frame Time: 0.002
-0.029436779022216798	0.010796707153320312	0		0.5113114624023437	-2.483644287109375	0		-0.87845458984375	0.015131196022033692	0		-0.49415835571289063	-2.437217529296875	0		1.9740699462890625	-1.2380606689453124	0		3.592938720703125	-0.509607177734375	0		4.8041591796875	-0.051735748291015626	0		5.95459716796875	0.34794189453125	0		-0.06226328659057617	5.941763671875	0		
-0.026801366806030274	-0.004638906002044678	0		0.5090213928222657	-2.485038818359375	0		-0.884536865234375	0.020852872848510742	0		-0.53340283203125	-2.435071044921875	0		1.960239501953125	-1.2093636474609375	0		3.5625400390625	-0.5257654418945312	0		4.79073974609375	-0.07117654418945313	0		5.95446240234375	0.3482728576660156	0		-0.02906609535217285	5.94792529296875	0		
-0.031002092361450195	-0.0080210599899292	0		0.51078662109375	-2.48252685546875	0		-0.8846829833984375	0.021456069946289062	0		-0.5116639709472657	-2.434779541015625	0		1.8924998779296875	-1.17398046875	0		3.538411376953125	-0.5220445556640625	0		4.7783212890625	-0.09067144012451171	0		5.94633203125	0.3486688232421875	0		-0.04588416290283203	5.95271728515625	0		
-0.02709837532043457	-0.003556107997894287	0		0.4866321105957031	-2.473709716796875	0		-0.8797780151367187	0.025947111129760742	0		-0.5719208984375	-2.4334287109375	0		1.8834990234375	-1.158430419921875	0		3.55492578125	-0.54491796875	0		4.758994140625	-0.1031176986694336	0		5.9510771484375	0.3398443603515625	0		-0.07886257934570312	5.94568310546875	0		
0.01482767391204834	0.00234505295753479	0		0.5194170532226563	-2.46971044921875	0		-0.872698486328125	0.043360595703125	0		-0.49723263549804686	-2.4369482421875	0		1.872904052734375	-1.112904296875	0		3.538062255859375	-0.5213864135742188	0		4.75267626953125	-0.11478775024414062	0		5.95406298828125	0.3489951477050781	0		-0.04465922927856445	5.95169482421875	0		
0.006680360794067383	0.0028693699836730958	0		0.4812666931152344	-2.460802734375	0		-0.8987471923828125	0.051169815063476565	0		-0.5165054931640625	-2.437250732421875	0		1.8480733642578124	-1.0852376708984375	0		3.50359423828125	-0.5426701049804687	0		4.73617138671875	-0.140371826171875	0		5.94982275390625	0.3411908264160156	0		-0.02757405662536621	5.9488828125	0		
-0.001540681004524231	-0.0026611111164093018	0		0.5240234375	-2.460050537109375	0		-0.864956298828125	0.04610842514038086	0		-0.521824951171875	-2.441798095703125	0		1.824239990234375	-1.058637451171875	0		3.49853857421875	-0.5344030151367187	0		4.72376708984375	-0.15906326293945314	0		5.95869775390625	0.3411558532714844	0		-0.045371883392333986	5.9544892578125	0		
-0.023734903335571288	-0.007059317111968994	0		0.4807751159667969	-2.460185791015625	0		-0.8949698486328125	0.05485727310180664	0		-0.5162274169921875	-2.453554931640625	0		1.8034765625	-1.0281348876953125	0		3.47429345703125	-0.5409313354492188	0		4.71056494140625	-0.16379739379882813	0		5.9495859375	0.3413109436035156	0		-0.02730145263671875	5.9495458984375	0		
0.04816086196899414	-0.0068082261085510255	0		0.47370721435546875	-2.44887451171875	0		-0.89002392578125	0.059065452575683595	0		-0.5784818725585937	-2.45544384765625	0		1.805745361328125	-0.9970071411132813	0		3.454407470703125	-0.5225744018554688	0		4.70407666015625	-0.19068280029296875	0		5.94149072265625	0.341395751953125	0		-0.04507950592041016	5.95503125	0		
0.006211885929107666	0.00393945598602295	0		0.4775798645019531	-2.443777587890625	0		-0.8969183349609375	0.07337164306640626	0		-0.5166425170898438	-2.453099365234375	0		1.80212158203125	-0.959860595703125	0		3.43497998046875	-0.545286865234375	0		4.68682861328125	-0.2014777374267578	0		5.95841357421875	0.34107864379882813	0		-0.04589924621582031	5.9562197265625	0		
0.007045910835266113	-0.0029668838977813723	0		0.5043638610839843	-2.447062744140625	0		-0.9079698486328125	0.07466805267333984	0		-0.5849464111328125	-2.46203125	0		1.7344598388671875	-0.926893798828125	0		3.429984619140625	-0.538255615234375	0		4.6714072265625	-0.22635801696777344	0		5.94524951171875	0.33311578369140626	0		-0.04571869659423828	5.95632861328125	0		
-0.024947532653808592	0.001515936017036438	0		0.4683681945800781	-2.435545654296875	0		-0.8708975219726562	0.08323262023925782	0		-0.52509033203125	-2.461797607421875	0		1.7368131103515625	-0.89495458984375	0		3.408899169921875	-0.53906396484375	0		4.65216796875	-0.239243408203125	0		5.94521142578125	0.332914306640625	0		-0.02857108497619629	5.95313623046875	0		
-0.005083897113800049	-0.005786468029022216	0		0.4583471374511719	-2.427452392578125	0		-0.8998177490234375	0.09164215850830078	0		-0.6042445678710937	-2.46270654296875	0		1.7061044921875	-0.8686215209960938	0		3.383745849609375	-0.545876708984375	0		4.64395556640625	-0.25134051513671873	0		5.9410625	0.32371054077148437	0		-0.046317169189453125	5.9573603515625	0		
-0.020064653396606444	-0.0026714320182800295	0		0.48106256103515627	-2.43988232421875	0		-0.8907275390625	0.09945642852783203	0		-0.5215502319335937	-2.476931396484375	0		1.70661865234375	-0.8277835083007813	0		3.39560302734375	-0.5532643432617188	0		4.6296455078125	-0.2714125671386719	0		5.945162109375	0.3313363342285156	0		-0.044144187927246094	5.95524072265625	0		
0.009966235160827636	-2.499389946460724E-4	0		0.46828909301757815	-2.416880615234375	0		-0.8765658569335938	0.11113160705566406	0		-0.5945703125	-2.4710546875	0		1.6883502197265625	-0.772745361328125	0		3.397826171875	-0.5355763549804687	0		4.6165732421875	-0.2755574951171875	0		5.94540283203125	0.3479606628417969	0		-0.030743995666503907	5.9688994140625	0		
-0.025003963470458985	0.0010133039951324462	0		0.49416107177734375	-2.42148583984375	0		-0.8585374755859375	0.11168354034423827	0		-0.53084375	-2.486154296875	0		1.7005450439453125	-0.7581978149414063	0		3.34946142578125	-0.5612434692382813	0		4.60833935546875	-0.29282632446289064	0		5.9362041015625	0.3316606750488281	0		-0.047653507232666016	5.9599130859375	0		
-0.02002090263366699	-0.0033457279205322266	0		0.46412728881835935	-2.421370849609375	0		-0.9034058227539062	0.11805077362060547	0		-0.5688648071289063	-2.48489501953125	0		1.697883544921875	-0.7355017700195312	0		3.353552978515625	-0.5566957397460938	0		4.59409033203125	-0.3130634765625	0		5.93702978515625	0.3151710205078125	0		-0.029483890533447264	5.95537255859375	0		
-0.004987606048583984	-0.0069082660675048825	0		0.49413165283203125	-2.422158447265625	0		-0.8702724609375	0.12126010131835938	0		-0.5349329223632813	-2.49070849609375	0		1.705233642578125	-0.7150037231445312	0		3.35654345703125	-0.5621865844726562	0		4.58290673828125	-0.3313920593261719	0		5.9281171875	0.31477386474609376	0		-0.014082418441772462	5.96580908203125	0		
-0.02475863265991211	-4.027700051665306E-5	0		0.44130181884765624	-2.4148388671875	0		-0.8990252075195313	0.12927690124511718	0		-0.60273486328125	-2.481151611328125	0		1.668614990234375	-0.695941650390625	0		3.3388564453125	-0.5484338989257812	0		4.5769150390625	-0.33983755493164064	0		5.9333515625	0.32113751220703124	0		-0.013800408363342285	5.965396484375	0		
0.06341570281982421	-0.0027500410079956054	0		0.472469970703125	-2.413755859375	0		-0.9056270751953125	0.1429243927001953	0		-0.5645970458984375	-2.482143798828125	0		1.6501790771484375	-0.669183837890625	0		3.349673828125	-0.575131103515625	0		4.59191943359375	-0.3536202392578125	0		5.94155517578125	0.32042181396484376	0		-0.014455326080322265	5.96594091796875	0		
-0.024279516220092775	-0.0010322510004043578	0		0.4259364318847656	-2.3976259765625	0		-0.9153273315429687	0.14355966186523436	0		-0.602358642578125	-2.48211962890625	0		1.6504482421875	-0.6697383422851563	0		3.341100830078125	-0.5645921020507813	0		4.56204248046875	-0.3648063049316406	0		5.936970703125	0.3288551330566406	0		-0.014045515060424806	5.96641796875	0		
0.05609176635742188	-0.0027341630458831787	0		0.48120172119140625	-2.403981201171875	0		-0.89375	0.15670416259765624	0		-0.6020185546875	-2.482681884765625	0		1.6251163330078124	-0.6489708862304687	0		3.331373291015625	-0.5720746459960937	0		4.56544384765625	-0.36349273681640626	0		5.925017578125	0.30436154174804686	0		-0.04863915634155273	5.96134130859375	0		
-0.03051373291015625	-0.009119237899780273	0		0.42877459716796873	-2.39585400390625	0		-0.9312593994140625	0.15663735961914063	0		-0.6015651245117187	-2.483289794921875	0		1.64657666015625	-0.6509039306640625	0		3.315725341796875	-0.5815051879882812	0		4.560599609375	-0.3870930480957031	0		5.925505859375	0.3036710205078125	0		-0.0139974365234375	5.96624462890625	0		
0.057171428680419925	-0.004004398822784424	0		0.46037164306640627	-2.39495068359375	0		-0.9266068115234375	0.15993589782714843	0		-0.5948956909179688	-2.477023193359375	0		1.633280029296875	-0.6433758544921875	0		3.34111376953125	-0.5965429077148438	0		4.55810595703125	-0.39374725341796873	0		5.9353154296875	0.3178317260742187	0		-0.0312867374420166	5.96984619140625	0		
